<svg xmlns="http://www.w3.org/2000/svg" version="1.1" xmlns:xlink="http://www.w3.org/1999/xlink" xmlns:svgjs="http://svgjs.com/svgjs" width="682.66669" height="682.66669"><svg version="1.1" id="SvgjsSvg1004" width="682.66669" height="682.66669" viewBox="0 0 682.66669 682.66669" sodipodi:docname="wing.svg" inkscape:version="1.2.2 (732a01da63, 2022-12-09)" xmlns:inkscape="http://www.inkscape.org/namespaces/inkscape" xmlns:sodipodi="http://sodipodi.sourceforge.net/DTD/sodipodi-0.dtd" xmlns="http://www.w3.org/2000/svg" xmlns:svg="http://www.w3.org/2000/svg">
  <defs id="SvgjsDefs1003"></defs>
  <sodipodi:namedview id="SvgjsSodipodi:namedview1002" pagecolor="#505050" bordercolor="#eeeeee" borderopacity="1" inkscape:showpageshadow="0" inkscape:pageopacity="0" inkscape:pagecheckerboard="0" inkscape:deskcolor="#505050" showgrid="false" inkscape:zoom="1.1762695" inkscape:cx="341.33334" inkscape:cy="341.33334" inkscape:window-width="1920" inkscape:window-height="1012" inkscape:window-x="-8" inkscape:window-y="-8" inkscape:window-maximized="1" inkscape:current-layer="g188"></sodipodi:namedview>
  <g inkscape:groupmode="layer" inkscape:label="Image" id="SvgjsG1001">
    <path style="fill:#2e93d8;stroke-width:1.33333" d="m 314.73392,675.25346 c -61.89865,-7.22984 -110.55775,-24.24279 -156,-54.54317 C 106.84652,586.11239 69.72004,543.89429 42.65815,488.71566 18.9218,440.31774 9.07305,397.76225 8.86889,342.71566 8.75575,312.2072 9.76044,300.93651 14.87113,275.38232 36.47007,167.38445 113.329,73.842844 214.06725,32.949528 258.43351,14.939653 295.97296,7.5205641 342.73392,7.5205641 c 46.76097,0 84.30042,7.4190889 128.66668,25.4289639 100.73825,40.893316 177.59718,134.434922 199.19612,242.432792 5.1107,25.55419 6.11539,36.82488 6.00224,67.33334 -0.20416,55.04659 -10.05292,97.60208 -33.78926,146 -16.78365,34.22151 -37.40231,63.23353 -63.45561,89.28683 -50.17103,50.17102 -116.35244,83.54789 -187.9535,94.78942 -12.71429,1.99617 -66.00268,3.70711 -76.66667,2.46155 z m 118.33491,-168.9333 c 2.97671,-2.97672 5.64554,-13.46351 23.70511,-93.1461 11.19291,-49.38545 21.46282,-94.77707 22.82203,-100.87026 1.35921,-6.09317 3.05127,-11.19317 3.76012,-11.33333 0.70884,-0.14015 6.15923,11.54847 12.11195,25.97469 12.05116,29.20559 13.93046,32.6621 18.75576,34.49667 1.84272,0.70062 11.39678,1.27383 21.23126,1.27383 h 17.88087 l 4.13886,4.54831 c 9.61086,10.56161 27.21552,13.13888 38.54318,5.64258 10.55891,-6.98756 16.6708,-21.8598 13.45544,-32.74151 -2.06181,-6.97777 -7.9708,-14.61689 -13.97924,-18.0723 -12.35865,-7.1074 -24.99898,-5.42439 -36.33024,4.83724 l -7.12489,6.45234 h -9.95515 c -8.85925,0 -10.16905,-0.33025 -11.89819,-3 -1.06866,-1.65 -7.33473,-16.2 -13.92458,-32.33333 -26.91138,-65.88466 -26.04275,-64.28787 -35.65708,-65.54767 -4.01938,-0.52668 -6.26536,0.0337 -9.87011,2.46288 -5.98087,4.03032 -3.8178,-4.37839 -37.48287,145.71146 -6.27628,27.98175 -8.29713,34.19691 -9.73157,29.92963 -0.34936,-1.0393 -4.89996,-27.08963 -10.11246,-57.88963 -27.19352,-160.68331 -29.47652,-173.34326 -31.8587,-176.66667 -1.31412,-1.83334 -4.73495,-4.15872 -7.60186,-5.16752 -4.5201,-1.59054 -5.86297,-1.56104 -10.10884,0.22196 -2.69296,1.13089 -5.80109,3.45628 -6.90694,5.16752 -1.49444,2.31254 -37.39155,144.82329 -43.4121,172.34502 -2.15237,9.83918 -4.08167,5.8981 -18.69943,-38.19834 -5.66438,-17.08737 -7.6901,-21.58769 -10.9531,-24.33333 -4.38263,-3.68775 -10.73819,-4.40223 -16.3628,-1.83948 -1.97811,0.90128 -10.02156,11.03894 -19.58947,24.6898 -10.10756,14.4208 -17.29243,23.42441 -19.03994,23.85961 -1.54362,0.38443 -23.85236,0.52401 -49.57496,0.3102 l -46.76837,-0.38877 -6.85406,-6.16391 c -18.02977,-16.21429 -43.51381,-8.61045 -49.72897,14.83798 -3.16134,11.92701 4.54541,27.40016 16.53911,33.20621 11.24201,5.44216 26.95396,2.09168 36.16344,-7.71164 l 3.91612,-4.16864 h 55.21149 c 48.14436,0 55.67231,-0.27221 58.81159,-2.12663 1.98006,-1.16965 7.47263,-7.75325 12.20572,-14.63022 4.7331,-6.87699 9.3734,-12.37001 10.3118,-12.20671 0.96668,0.16821 8.06038,19.05661 16.36679,43.57991 8.99085,26.54398 15.76144,44.45477 17.50707,46.31292 6.96392,7.41274 19.434,4.62993 23.66274,-5.28058 1.32566,-3.10678 10.39452,-38.34869 20.15307,-78.31536 9.75855,-39.96667 18.22662,-73.22667 18.81792,-73.91111 0.59132,-0.68445 1.34586,-0.97372 1.67675,-0.64282 0.33089,0.33089 9.33251,51.59089 20.00357,113.91111 10.67107,62.32023 19.75767,115.36681 20.19243,117.88132 0.4656,2.69287 2.68,6.46135 5.388,9.16935 4.22116,4.22116 5.09857,4.54104 10.71844,3.9076 4.12351,-0.46479 7.21555,-1.78454 9.47529,-4.04428 z" id="SvgjsPath1000"></path>
  </g>
</svg><style>@media (prefers-color-scheme: light) { :root { filter: none; } }
</style></svg>