<?xml version="1.0" encoding="UTF-8" standalone="no"?>
<!-- Created with Inkscape (http://www.inkscape.org/) -->

<svg
   version="1.1"
   id="svg19409"
   width="231.2"
   height="52"
   viewBox="0 0 231.2 52"
   sodipodi:docname="logo_white2.svg"
   inkscape:version="1.2.2 (732a01da63, 2022-12-09)"
   xmlns:inkscape="http://www.inkscape.org/namespaces/inkscape"
   xmlns:sodipodi="http://sodipodi.sourceforge.net/DTD/sodipodi-0.dtd"
   xmlns="http://www.w3.org/2000/svg"
   xmlns:svg="http://www.w3.org/2000/svg">
  <defs
     id="defs19413">
    <filter
       style="color-interpolation-filters:sRGB"
       inkscape:label="Invert"
       id="filter31622"
       x="0"
       y="0"
       width="1"
       height="1">
      <feColorMatrix
         values="-1 0 0 0 1 0 -1 0 0 1 0 0 -1 0 1 -0.21 -0.72 -0.07 2 0 "
         result="color2"
         id="feColorMatrix31620" />
    </filter>
    <filter
       style="color-interpolation-filters:sRGB"
       inkscape:label="Greyscale"
       id="filter787"
       x="0"
       y="0"
       width="1"
       height="1">
      <feColorMatrix
         values="6.12698 6.25397 6.38095 4.15873 0 6.12698 6.25397 6.38095 4.15873 0 6.12698 6.25397 6.38095 4.15873 0 0 0 0 1 0 "
         id="feColorMatrix785"
         result="fbSourceGraphic" />
      <feColorMatrix
         result="fbSourceGraphicAlpha"
         in="fbSourceGraphic"
         values="0 0 0 -1 0 0 0 0 -1 0 0 0 0 -1 0 0 0 0 1 0"
         id="feColorMatrix789" />
      <feColorMatrix
         id="feColorMatrix791"
         values="6.12698 6.25397 6.38095 4.15873 0 6.12698 6.25397 6.38095 4.15873 0 6.12698 6.25397 6.38095 4.15873 0 0 0 0 1 0 "
         in="fbSourceGraphic" />
    </filter>
  </defs>
  <sodipodi:namedview
     id="namedview19411"
     pagecolor="#505050"
     bordercolor="#eeeeee"
     borderopacity="1"
     inkscape:showpageshadow="0"
     inkscape:pageopacity="0"
     inkscape:pagecheckerboard="0"
     inkscape:deskcolor="#505050"
     showgrid="false"
     inkscape:zoom="1.0212054"
     inkscape:cx="306.99016"
     inkscape:cy="228.65136"
     inkscape:window-width="1920"
     inkscape:window-height="1012"
     inkscape:window-x="-8"
     inkscape:window-y="-8"
     inkscape:window-maximized="1"
     inkscape:current-layer="g19415" />
  <g
     inkscape:groupmode="layer"
     inkscape:label="Image"
     id="g19415">
    <g
       id="g31748"
       transform="translate(51.492895,-0.48961748)">
      <path
         style="fill:#000000;stroke-width:0.32;filter:url(#filter31622)"
         d="m 18.70089,48.62676 c -1.586003,-1.586003 0.859765,-4.996464 6.473834,-9.027331 1.156551,-0.830397 4.445888,-2.949811 7.309642,-4.709811 l 5.206822,-3.2 2.586877,-3.627202 c 1.422784,-1.99496 2.407619,-3.516412 2.188522,-3.381003 -0.219095,0.135409 -1.500138,1.135714 -2.846756,2.2229 -3.785648,3.056321 -7.021798,3.921918 -7.021798,1.878171 0,-1.066277 0.430509,-1.842092 2.204592,-3.972867 1.594518,-1.915109 1.507485,-1.863016 -2.557302,1.530696 -3.813946,3.184282 -6.365015,4.268775 -7.32384,3.11346 -0.639604,-0.770673 -0.102151,-2.032577 1.970982,-4.62776 3.345344,-4.187754 0.802179,-3.180815 -5.756429,2.279197 -3.190017,2.655674 -4.855738,3.486726 -4.859371,2.424408 -0.0011,-0.327995 1.832873,-3.153055 4.120399,-6.347005 0.389786,-0.544237 0.369368,-0.612996 -0.182029,-0.612996 -0.341582,0 -1.835147,1.101687 -3.319031,2.448193 -4.495106,4.078949 -6.42631,5.210001 -8.154965,4.776136 -1.328453,-0.33342 -1.036321,-1.735574 0.883445,-4.240298 1.8135,-2.366078 1.520319,-2.2224 -2.327162,1.140468 -3.431448,2.999236 -6.218178,3.996763 -7.12364503,2.549953 -0.4577822,-0.731472 0.410306,-2.876908 2.02348503,-5.000943 0.704479,-0.927571 1.280871,-1.755571 1.280871,-1.84 0,-0.08443 -0.36,-0.153509 -0.8,-0.153509 -0.44,0 -0.8,-0.144 -0.8,-0.32 0,-0.176 0.496436,-0.32 1.103191,-0.32 0.978093,0 1.458897,-0.366987 4.24,-3.2363 2.976695,-3.071108 4.273285,-4.029059 4.915842,-3.631937 0.15693,0.09699 -1.00753,1.646018 -2.587687,3.44229 l -2.873014,3.265947 1.840834,0.16 1.840834,0.16 -2.08,0.241159 c -2.309943,0.267818 -2.373963,0.321944 -4.56,3.855275 -1.403712,2.268844 -1.48221,2.783567 -0.424511,2.783567 0.829711,0 2.810358,-1.383786 5.57525,-3.895168 2.358884,-2.142599 4.265299,-3.21115 5.506221,-3.086251 l 1.007635,0.101418 -2.277486,2.72 c -2.125908,2.538971 -2.917946,3.93583 -2.479995,4.373781 0.354593,0.354593 2.957275,-1.44969 5.594765,-3.878515 3.830516,-3.527463 5.377039,-4.328347 6.394121,-3.311266 0.614304,0.614304 0.471725,1.047413 -1.10109,3.344744 -1.548557,2.261898 -1.471924,2.246021 1.779768,-0.368744 3.767159,-3.029263 6.639972,-4.112701 7.35626,-2.774305 0.382032,0.713834 0.06406,1.379563 -1.991472,4.169508 -1.406711,1.90931 -1.837975,2.924798 -1.242116,2.924798 0.461952,0 3.063773,-1.781548 4.86265,-3.329611 2.74841,-2.365203 5.407686,-4.03039 6.436464,-4.03039 1.179453,0 1.160893,0.243101 -0.136096,1.782401 -1.957456,2.323165 -3.420368,4.386253 -3.420368,4.823616 0,1.197432 1.902778,0.08376 7.291914,-4.26786 2.130332,-1.720202 3.569996,-2.658157 4.08,-2.658157 0.433446,0 0.78736,0.108 0.786473,0.24 -9.6e-4,0.132 -1.380301,2.088587 -3.065363,4.347971 -1.685062,2.259384 -3.000634,4.171088 -2.923488,4.248231 0.164762,0.164764 4.819136,-3.110569 6.007974,-4.227879 0.449629,-0.422577 0.939949,-0.768323 1.089597,-0.768323 0.814743,0 -3.27056,3.362134 -6.310233,5.19321 -1.42073,0.855839 -2.397616,1.886893 -4.720759,4.982535 -4.656781,6.205264 -9.142054,10.39423 -13.639539,12.73848 -2.292298,1.194829 -4.219516,1.417123 -5.053719,0.582918 z m 4.937143,-1.142848 c 2.34017,-1.329238 6.522013,-5.616144 10.178589,-10.434294 1.636221,-2.156 2.885728,-3.92 2.776678,-3.92 -0.322569,0 -7.500259,4.43487 -9.755267,6.027472 -5.195355,3.669232 -8.070229,7.534301 -6.656,8.948528 0.617935,0.617936 1.577462,0.445325 3.456,-0.621706 z m 70.93333,1.432372 c -0.59776,-0.597767 -0.0774,-2.565978 1.52428,-5.765514 2.12442,-4.243738 4.948827,-8.509056 9.244197,-13.960225 4.49842,-5.708868 4.54631,-5.800619 1.65735,-3.1755 -3.62631,3.29511 -6.64148,4.664253 -7.775157,3.530573 -0.5922,-0.592195 -0.46656,-1.314064 0.57248,-3.289309 l 0.956477,-1.818299 -2.636077,2.180881 c -1.44984,1.199485 -3.1347,2.435096 -3.74414,2.745804 -2.07655,1.058688 -3.85501,0.484431 -3.3572,-1.084027 l 0.22841,-0.719661 -0.92198,0.612331 c -1.700607,1.129465 -3.13062,1.75628 -4.006773,1.75628 -1.567735,0 -2.329994,-1.432276 -1.543939,-2.901038 0.470956,-0.879987 0.08253,-0.76761 -1.180826,0.341633 -1.303229,1.14425 -3.997968,2.559405 -4.873622,2.559405 -1.842362,0 -2.09514,-1.036805 -0.851252,-3.491501 0.92705,-1.829443 3.39992,-5.012538 8.395911,-10.807264 4.343211,-5.037582 6.597661,-7.1412353 7.653141,-7.1412353 0.42096,0 0.76539,0.078231 0.76539,0.1738473 0,0.095616 -1.404,1.720728 -3.12,3.61136 -6.277818,6.916692 -11.92,14.508504 -11.92,16.038901 0,0.630616 1.322707,0.337264 2.662342,-0.590459 0.735712,-0.509492 2.198388,-1.682801 3.250394,-2.607353 3.823779,-3.360524 9.127264,-4.996656 9.127264,-2.815775 0,0.577346 0.0769,0.563388 1.0702,-0.194236 1.03955,-0.792897 2.4498,-1.102013 2.4498,-0.536975 0,0.153621 -0.7742,1.223818 -1.72044,2.378217 -2.41734,2.94911 -3.24248,4.347552 -2.81657,4.773466 0.24553,0.245527 0.55518,0.205751 1.08058,-0.138805 1.19299,-0.782364 7.231637,-5.648473 7.452007,-6.005037 0.12123,-0.196151 -0.19734,-0.327152 -0.79558,-0.327152 -0.5837,0 -0.9157,-0.1328 -0.8,-0.32 0.10877,-0.176 0.70388,-0.32 1.32245,-0.32 0.96383,0 1.36155,-0.263161 2.78084,-1.84 3.47506,-3.860825 5.54203,-5.506421 6.31574,-5.028237 0.15693,0.09699 -1.00762,1.646018 -2.58788,3.44229 l -2.87322,3.265947 1.68104,0.162427 1.68103,0.162427 -1.96174,0.249135 c -1.93536,0.245784 -1.9789,0.273731 -3.23681,2.077573 -1.38838,1.990947 -2.32145,3.684117 -2.32145,4.212547 0,0.184741 0.34897,0.335892 0.77549,0.335892 0.83109,0 2.97293,-1.47959 5.30451,-3.664358 0.792,-0.742131 1.96702,-1.76925 2.61116,-2.282486 0.64414,-0.513236 2.20371,-2.229157 3.46573,-3.813157 5.99873,-7.529241 12.87439,-14.4028657 15.84616,-15.8414745 2.21964,-1.0745125 3.70511,-0.4692759 3.25452,1.3260181 -0.50061,1.9945972 -3.32163,4.7224292 -13.47031,13.0253444 -4.5753,3.74318 -6.27902,5.368495 -8.43843,8.050112 -1.92099,2.385537 -2.56148,3.388825 -2.20843,3.459388 0.841,0.168088 3.88858,-1.46719 6.51722,-3.497028 3.02626,-2.336878 5.6578,-3.725289 7.51806,-3.966563 1.19757,-0.155324 1.30301,-0.123982 0.78157,0.232329 -3.29464,2.251308 -5.78128,5.05202 -6.15804,6.935823 -0.17409,0.870455 -0.11146,0.996052 0.49668,0.996052 0.38274,0 1.09556,-0.206678 1.58405,-0.459284 1.05907,-0.547665 3.24006,-2.889406 3.24006,-3.478865 0,-0.228968 0.504,-0.904801 1.12,-1.501852 0.63296,-0.613489 1.12,-1.401767 1.12,-1.81273 0,-0.945752 0.89034,-0.656236 1.1488,0.373561 0.20618,0.821475 -0.39792,2.157995 -1.64563,3.640808 -0.68738,0.816906 -0.74209,0.998362 -0.30101,0.998362 0.71333,0 2.19544,-1.033407 4.15784,-2.899082 2.98165,-2.834683 4.90135,-3.751564 5.856,-2.796919 0.60842,0.608423 0.45588,1.340754 -0.576,2.765217 -1.46993,2.029178 -1.15634,1.983207 1.04,-0.152457 2.41172,-2.345101 3.34921,-2.99676 4.3112,-2.99676 0.97014,0 0.92636,0.183752 -0.3912,1.642138 -1.24764,1.38099 -1.45334,2.636945 -0.5142,3.139559 0.66913,0.358108 1.1623,0.05378 4.0342,-2.489433 2.01504,-1.784422 3.3618,-2.441509 4.44623,-2.169332 1.19999,0.301178 1.06085,1.104924 -0.61504,3.552813 -1.59291,2.326691 -1.32841,2.277996 1.76881,-0.325634 3.53476,-2.971442 6.60128,-4.127793 7.33094,-2.764416 0.38102,0.711955 -0.0726,1.677295 -1.79618,3.822445 -1.3397,1.667354 -1.24614,1.61979 1.97486,-1.004035 3.73767,-3.044696 6.77039,-4.184157 7.50132,-2.81841 0.38746,0.723989 -0.0341,1.593239 -2.0314,4.188907 -1.34961,1.753919 -1.82606,2.905399 -1.20219,2.905399 0.40515,0 2.96539,-1.703568 4.49293,-2.989563 0.76465,-0.643741 1.46628,-1.170438 1.55918,-1.170438 0.32903,0 -0.73296,1.084731 -2.52139,2.575385 -3.16887,2.641251 -6.34807,3.307194 -6.34807,1.329721 0,-0.979991 0.3807,-1.606729 2.62516,-4.321719 0.84416,-1.021137 1.53484,-1.921137 1.53484,-2 0,-0.07886 -0.27159,-0.143387 -0.60354,-0.143387 -0.84318,0 -3.81836,2.060503 -7.3652,5.100885 -2.84996,2.443019 -4.51126,3.243867 -4.51126,2.174712 0,-0.447666 2.12826,-3.623811 3.78672,-5.651174 0.85535,-1.045609 0.97055,-1.340904 0.5814,-1.490238 -0.72887,-0.279692 -2.88435,1.118533 -6.94052,4.502184 -3.4274,2.859142 -5.10526,3.727347 -5.10897,2.643632 -10e-4,-0.327995 1.83287,-3.153055 4.1204,-6.347005 0.38911,-0.543292 0.36951,-0.612996 -0.17236,-0.612996 -0.33626,0 -1.58311,0.862584 -2.77078,1.916853 -2.42737,2.154732 -3.45367,2.566735 -4.67372,1.876238 -0.65093,-0.368404 -0.82217,-0.711933 -0.82217,-1.649414 0,-0.651253 -0.0503,-1.184002 -0.11169,-1.183886 -0.0614,1.15e-4 -1.66022,1.440209 -3.55287,3.20021 -3.23726,3.010384 -4.81544,3.92049 -4.81544,2.776979 0,-0.389964 2.3817,-4.035726 3.88474,-5.946541 0.35265,-0.448322 0.49483,-0.863914 0.31596,-0.923538 -0.52679,-0.175596 -1.59153,0.522785 -3.56988,2.341535 -2.1126,1.942176 -3.42811,2.711565 -4.63628,2.711565 -0.46048,0 -1.30338,0.355544 -1.87312,0.790099 -2.24168,1.709817 -4.56392,2.20073 -5.91937,1.251334 -0.61864,-0.433307 -0.71821,-0.735826 -0.60563,-1.84 0.0741,-0.726788 0.25542,-1.596378 0.40295,-1.932421 0.18198,-0.414525 -0.29594,-0.185029 -1.48633,0.713721 -0.96501,0.72859 -2.81935,1.763794 -4.12076,2.300452 -1.30142,0.536659 -2.47787,1.151485 -2.61434,1.366279 -0.13647,0.214795 -0.55824,1.326536 -0.93727,2.470536 -1.02694,3.099536 -3.16947,7.550278 -5.03333,10.455875 -2.641797,4.118323 -5.805627,6.719165 -6.874007,5.650791 z m 3.91654,-2.534618 c 2.212107,-2.420407 4.817407,-6.8928 6.582047,-11.29913 0.80332,-2.005894 1.40382,-3.703848 1.33443,-3.773232 -0.32641,-0.326414 -7.959717,11.010311 -9.675457,14.369677 -1.536,3.007415 -0.66531,3.355242 1.75898,0.702685 z M 88.625201,28.635758 c 1.644432,-0.838928 3.614362,-2.622357 4.799912,-4.345494 1.18056,-1.715885 1.20308,-2.360647 0.0825,-2.360647 -1.90746,0 -7.451016,5.562072 -6.92077,6.943878 0.216583,0.564399 0.539997,0.526679 2.038378,-0.237737 z M 121.07803,15.067021 c 6.01839,-5.2774452 9.22709,-8.5222568 10.02782,-10.1406751 0.75959,-1.5352647 0.6701,-1.8767283 -0.49183,-1.8767283 -1.38534,0 -8.24239,7.3412364 -14.34693,15.3599994 -1.90222,2.498704 -1.65302,2.325562 4.81094,-3.342596 z M 48.598033,29.854394 c -0.873392,-0.315651 -1.12,-0.580924 -1.12,-1.204776 0,-0.594381 0.287869,-0.943806 1.12,-1.359503 1.489533,-0.744105 3.968189,-0.714751 8.17353,0.0968 3.21232,0.619914 3.452803,0.626641 4.228646,0.118288 1.619696,-1.061265 3.721456,-3.227005 7.491571,-7.719627 3.51624,-4.190098 7.062522,-7.775955 7.690131,-7.775955 0.69658,0 0.114301,-0.627254 -0.993894,-1.070666 -2.44175,-0.9769944 -5.34473,-1.2838412 -8.27192,-0.874348 -3.462589,0.484392 -5.679814,1.324385 -7.98999,3.026996 -2.215789,1.633049 -3.574042,3.900251 -3.831597,6.395716 -0.161639,1.566125 -0.0973,1.791224 0.798281,2.79286 0.900791,1.007463 1.114474,1.088483 2.839668,1.076697 1.442748,-0.0099 2.253984,-0.224991 3.579305,-0.949215 3.073863,-1.679718 5.248035,-4.913713 4.719408,-7.019933 -0.442931,-1.764781 -3.177107,-1.874539 -4.970217,-0.199524 -0.540605,0.505003 -0.982922,0.815354 -0.982922,0.68967 0,-0.53664 1.935488,-2.01894 2.924275,-2.239565 1.307165,-0.291664 2.853053,0.08445 3.395354,0.826091 0.555049,0.759077 0.500656,2.837159 -0.107827,4.119443 -1.292036,2.722765 -5.47745,5.265774 -8.666679,5.265774 -3.554742,0 -5.550435,-1.479104 -5.538096,-4.104552 0.01958,-4.165771 4.026371,-7.795849 10.552973,-9.560794 3.117475,-0.8430373 9.117277,-0.7619676 11.731056,0.158511 l 1.971056,0.694135 1.390899,-0.777388 c 2.879933,-1.6096249 6.949559,-2.1952534 9.077267,-1.30624 1.59944,0.668289 1.36489,0.8126029 -0.384611,0.2366442 -1.254518,-0.4130045 -1.847181,-0.4314464 -3.69304,-0.1149165 -2.103731,0.3607498 -5.104662,1.6021373 -5.527702,2.2866323 -0.110202,0.178311 0.203606,0.85384 0.697353,1.501176 0.742736,0.973778 0.897722,1.494177 0.897722,3.014317 0,2.602385 -1.170083,4.23592 -4.081168,5.697659 -1.725853,0.866602 -2.615024,1.104949 -4.414416,1.183309 -2.173434,0.09465 -2.311373,0.150381 -3.894003,1.5733 -0.902413,0.811347 -2.656432,2.078582 -3.897821,2.816078 l -2.257072,1.340901 1.59224,0.369895 c 2.618688,0.608351 4.364179,0.512131 6.032634,-0.332549 1.783705,-0.903026 1.821296,-0.347139 0.0443,0.655111 -1.801165,1.015884 -3.582073,1.169905 -6.949849,0.601056 -2.254138,-0.380745 -3.24618,-0.419843 -4.094842,-0.161384 -1.796848,0.547227 -7.98168,0.703098 -9.28,0.233876 z m 7.44,-0.420572 c 1.012,-0.104641 1.84,-0.299004 1.84,-0.431918 0,-0.316415 -3.722685,-1.002358 -6.56,-1.208748 -3.707846,-0.269714 -4.770515,1.353031 -1.198547,1.83024 1.511203,0.201895 2.411456,0.173059 5.918547,-0.189574 z m 16.993552,-7.624174 c 1.239027,-0.517699 3.139107,-2.125788 4.090509,-3.461909 0.929555,-1.305438 1.277421,-3.048943 0.894777,-4.484611 -0.635897,-2.385875 -1.125859,-2.023153 -5.204112,3.85265 -1.262099,1.818389 -2.492291,3.582389 -2.733756,3.92 -0.409984,0.573226 -0.361668,0.613839 0.730278,0.613839 0.64312,0 1.643155,-0.197986 2.222304,-0.439969 z M 16.812151,17.315257 c -0.320947,-0.836376 0.561518,-1.941857 1.633179,-2.045914 1.245779,-0.120965 1.376423,0.479319 0.312703,1.43681 -0.964366,0.868059 -1.751913,1.114578 -1.945882,0.609104 z"
         id="path19419"
         transform="matrix(1.0841289,0,0,1.0841289,0.24043721,-1.4771885)" />
    </g>
    <path
       style="fill:#000000;stroke-width:1.33333;filter:url(#filter787)"
       d="m 92.27759,340.71708 c -12.62338,-2.42579 -16.9574,-3.9556 -20.57988,-7.26423 -2.24773,-2.05299 -4.08678,-4.63251 -4.08678,-5.73227 0,-1.09974 -1.05,-2.78678 -2.33334,-3.74896 -1.28333,-0.96217 -3.53333,-4.10792 -5,-6.99056 -2.47074,-4.85609 -3.75956,-5.6679 -17.54194,-11.04968 -13.27251,-5.18266 -15.82607,-6.7362 -23.69963,-14.41837 -4.85338,-4.73541 -9.37886,-8.60985 -10.05661,-8.60985 -0.67775,0 -3.13311,-3.98287 -5.45636,-8.85082 -4.59795,-9.63412 -4.76409,-16.38902 -0.60115,-24.43928 3.08198,-5.95986 2.50098,-8.37018 -3.40021,-14.10597 -2.98243,-2.89883 -7.58891,-8.8706 -10.23664,-13.2706 -2.64772,-4.4 -7.61043,-11.3 -11.02824,-15.33334 -6.39435,-7.54594 -17.39201,-23.94 -19.23052,-28.66666 -2.6823,-6.896 -4.65802,-18.20294 -4.7012,-26.90476 -0.0508,-10.2408 -1.00435,-12.11976 -7.98159,-15.72783 -3.56809,-1.84513 -9.399244,-12.56379 -9.399244,-17.27741 0,-2.81107 -8.81717,-12.39738 -14.98232,-16.28927 -2.74845,-1.73501 -6.41732,-5.39996 -8.15306,-8.14432 -1.73574,-2.74436 -5.094,-7.06063 -7.46281,-9.59172 -2.36881,-2.53108 -5.39477,-7.63108 -6.724356,-11.33333 -2.36684,-6.59047 -2.84375,-9.0728 -5.39176,-28.0647 -2.30216,-17.15945 -3.66442,-24.30396 -5.1707,-27.11849 -1.98603,-3.71092 -6.74272,-18.97859 -6.76445,-21.71201 -0.0167,-2.10223 -4.12881,-12.73563 -6.78926,-17.55621 -0.72447,-1.3127 -1.86679,-5.2127 -2.53849,-8.66667 -0.67171,-3.45397 -3.09815,-14.979964 -5.3921,-25.613293 -9.57619,-44.389357 -9.99203,-51.354427 -4.05738,-67.958957 4.69581,-13.13837 11.05445,-19.89428 18.81033,-19.98554 5.63248,-0.0663 23.877166,7.26975 32.086626,12.90175 3.22469,2.21226 10.96307,6.83476 17.1964,10.27223 22.508224,12.41252 30.018154,17.61649 40.585574,28.123649 5.91127,5.877558 15.22721,14.256395 20.70208,18.619642 5.47488,4.363245 15.24614,13.159877 21.71391,19.54807 10.56601,10.436029 11.96472,12.402509 13.78077,19.374839 1.11167,4.26796 4.77092,13.92019 8.13168,21.4494 l 6.11047,13.68947 8.34505,3.98274 c 9.50949,4.53846 12.69688,4.8743 17.34651,1.82776 1.91964,-1.2578 4.76172,-1.87342 6.82656,-1.47871 2.16082,0.41307 5.1437,-0.30307 7.6642,-1.84004 3.61058,-2.20171 6.92426,-2.51695 26.50269,-2.52131 22.74621,-0.005 30.17032,1.28886 33.64289,5.8635 0.74381,0.97986 3.19653,2.18662 5.45049,2.68168 4.0898,0.89826 4.1093,0.87469 9.61195,-11.62307 3.03261,-6.88773 6.40864,-15.9585 7.50228,-20.15726 1.77656,-6.82068 3.24141,-8.87166 13.748,-19.24899 6.46777,-6.388201 16.23903,-15.184833 21.7139,-19.548079 5.47488,-4.363247 14.79082,-12.742084 20.70208,-18.619641 10.56743,-10.507157 18.07735,-15.711134 40.58558,-28.12365 6.23333,-3.43747 13.97171,-8.05997 17.19639,-10.27223 8.20946,-5.63199 26.45415,-12.96803 32.08663,-12.90175 7.75588,0.0913 14.11452,6.84717 18.81033,19.98554 5.93466,16.604525 5.51882,23.569596 -4.05738,67.95896 -2.29395,10.63334 -4.72039,22.15932 -5.3921,25.61329 -0.67169,3.45397 -1.81401,7.35397 -2.53848,8.66666 -2.66045,4.82059 -6.77256,15.45399 -6.78926,17.55622 -0.0217,2.73342 -4.77842,18.00109 -6.76446,21.71201 -1.50628,2.81453 -2.86853,9.95904 -5.1707,27.11849 -2.548,18.9919 -3.02491,21.47423 -5.39175,28.0647 -1.3296,3.70225 -4.35556,8.80225 -6.72436,11.33333 -2.36881,2.53109 -5.72708,6.84736 -7.46281,9.59172 -1.73575,2.74436 -5.40462,6.40931 -8.15307,8.14432 -6.16514,3.89189 -14.98232,13.4782 -14.98232,16.28927 0,4.71362 -5.83114,15.43228 -9.39924,17.27741 -6.97724,3.60807 -7.93077,5.48703 -7.98158,15.72783 -0.0432,8.70182 -2.0189,20.00876 -4.7012,26.90476 -1.83851,4.72666 -12.83618,21.12072 -19.23052,28.66666 -3.41782,4.03334 -8.38052,10.93334 -11.02824,15.33334 -2.64774,4.4 -7.25422,10.37177 -10.23664,13.2706 -5.90119,5.73579 -6.48219,8.14611 -3.40021,14.10597 4.16294,8.05026 3.9968,14.80516 -0.60115,24.43928 -2.32325,4.86795 -4.77861,8.85082 -5.45636,8.85082 -0.67775,0 -5.20323,3.87444 -10.05661,8.60985 -7.89064,7.69884 -10.39834,9.22116 -23.69963,14.38716 -14.16388,5.50101 -15.00281,6.0434 -17.54195,11.34116 -3.9136,8.16552 -11.19218,11.36315 -26.66666,11.71519 -6.6,0.15016 -13.2,0.0424 -14.66667,-0.23944 z"
       id="path427"
       transform="matrix(0.10412584,0,0,0.10412584,15.00581,15.937268)" />
  </g>
</svg>
