<?xml version="1.0" encoding="UTF-8" standalone="no"?>
<!-- Created with Inkscape (http://www.inkscape.org/) -->

<svg
   version="1.1"
   id="svg59"
   width="560"
   height="160"
   viewBox="0 0 559.99999 160"
   sodipodi:docname="logo.svg"
   inkscape:version="1.2.2 (732a01da63, 2022-12-09)"
   xmlns:inkscape="http://www.inkscape.org/namespaces/inkscape"
   xmlns:sodipodi="http://sodipodi.sourceforge.net/DTD/sodipodi-0.dtd"
   xmlns="http://www.w3.org/2000/svg"
   xmlns:svg="http://www.w3.org/2000/svg">
  <defs
     id="defs63">
    <linearGradient
       id="linearGradient2984"
       inkscape:swatch="solid">
      <stop
         style="stop-color:#000000;stop-opacity:1;"
         offset="0"
         id="stop2982" />
    </linearGradient>
    <rect
       x="125.92454"
       y="75.112885"
       width="137.57558"
       height="41.883461"
       id="rect233" />
  </defs>
  <sodipodi:namedview
     id="namedview61"
     pagecolor="#505050"
     bordercolor="#eeeeee"
     borderopacity="1"
     inkscape:showpageshadow="0"
     inkscape:pageopacity="0"
     inkscape:pagecheckerboard="0"
     inkscape:deskcolor="#505050"
     showgrid="false"
     inkscape:zoom="0.90530411"
     inkscape:cx="483.26302"
     inkscape:cy="31.481134"
     inkscape:window-width="1920"
     inkscape:window-height="1012"
     inkscape:window-x="-8"
     inkscape:window-y="-8"
     inkscape:window-maximized="1"
     inkscape:current-layer="g65" />
  <g
     inkscape:groupmode="layer"
     inkscape:label="Image"
     id="g65">
    <path
       style="fill:#000000;stroke-width:0.28056"
       d="m 57.122558,203.24913 c 0,-0.1154 -0.262096,-0.72361 -0.582439,-1.35154 -1.830528,-3.58813 -4.519801,-11.73205 -5.591319,-16.93215 -2.113552,-10.25718 -2.401319,-19.59677 -1.084875,-35.21038 0.797353,-9.45716 0.649918,-16.84902 -0.416598,-20.8864 -0.704559,-2.66722 -2.826913,-7.45023 -3.305865,-7.45023 -0.125202,0 -0.224554,5.52353 -0.220608,12.27453 0.0052,7.55062 -0.158869,15.29784 -0.424331,20.13024 -0.496996,9.04787 -0.564752,19.14388 -0.15501,23.08718 1.018891,9.80373 3.500943,16.85305 7.874219,22.36366 1.429724,1.80147 3.906826,4.32189 3.906826,3.97509 z m 50.177772,-45.39226 c 2.13819,-0.35542 5.43861,-1.74329 7.66446,-3.22305 1.89157,-1.25752 5.43268,-4.54297 5.17462,-4.80104 -0.19973,-0.19972 -1.98101,0.41535 -4.69733,1.62197 -3.72056,1.65273 -6.30452,2.24786 -10.53006,2.42523 -4.21582,0.177 -7.229372,-0.17323 -10.608521,-1.23276 -2.70469,-0.84806 -6.474214,-2.75097 -8.493604,-4.2877 -0.810119,-0.6165 -1.472943,-1.0555 -1.472943,-0.97557 0,0.08 0.306657,0.75044 0.681457,1.49009 1.929508,3.80769 8.47819,7.4578 15.909061,8.86741 2.47644,0.46979 4.0677,0.4986 6.37286,0.1154 z m -10.057582,-9.23296 c 4.315942,-0.51051 8.651812,-2.18495 11.806692,-4.55949 3.63338,-2.7347 4.95457,-3.01648 6.7095,-1.43101 1.31935,1.19194 1.49833,0.77944 0.52988,-1.22113 -0.86115,-1.77887 -1.56405,-2.14431 -3.78201,-1.96628 -1.54194,0.12379 -2.53305,0.48319 -6.23412,2.26071 -4.69143,2.25316 -6.15679,2.78812 -8.996934,3.28456 -2.234333,0.39054 -7.800141,0.39009 -9.852635,-8.5e-4 -2.296067,-0.43725 -5.55308,-1.36329 -6.479037,-1.84213 -2.233002,-1.15473 0.484285,1.54063 2.972026,2.94805 2.203876,1.24683 5.278551,2.22774 7.938036,2.53246 2.678673,0.30694 2.752453,0.30687 5.388602,-0.006 z m 28.541532,-1.97018 c 6.06155,-1.19637 11.5632,-8.40652 11.57533,-15.16998 0.003,-1.80805 -0.51354,-3.86495 -1.16965,-4.65552 -0.25682,-0.30945 -0.51523,0.195 -1.2494,2.43887 -1.84863,5.65023 -4.98926,10.8121 -8.06807,13.26055 -1.78044,1.41588 -4.49407,2.71408 -6.26324,2.99632 l -1.34249,0.21417 0.84169,0.34526 c 0.94058,0.38582 3.34072,0.88254 4.03629,0.83532 0.24897,-0.0176 0.98676,-0.13625 1.63954,-0.26499 z m -9.60368,-14.69219 c 0.92173,-0.41262 2.03532,-1.53548 3.58936,-3.61921 0.55484,-0.74396 1.88705,-1.96942 2.96046,-2.72326 2.02726,-1.42368 3.29776,-2.85977 2.98201,-3.37067 -0.11511,-0.18617 -0.30393,-0.19907 -0.50873,-0.0348 -0.17914,0.14374 -1.2726,0.47204 -2.42992,0.72956 -1.15731,0.25751 -2.65617,0.73289 -3.33079,1.05639 -1.28429,0.61584 -1.22135,0.51387 -3.47266,5.62509 -0.32279,0.73289 -0.81788,1.54154 -1.10014,1.79699 -1.03831,0.93965 -0.28026,1.25196 1.31041,0.53987 z m -4.35857,-3.38881 c 0.45003,-1.11505 0.2204,-3.37049 -0.4146,-4.07216 -0.73638,-0.81369 -2.3277,-1.16367 -3.92997,-0.86433 -0.74408,0.13901 -1.52062,0.18837 -1.72566,0.10969 -0.49227,-0.1889 -0.47715,0.33366 0.0242,0.83497 0.45161,0.45161 1.49879,0.87009 3.06219,1.22374 1.10393,0.24972 1.47685,0.68482 2.25228,2.62781 l 0.39189,0.98195 z m 28.59631,-2.03407 c 3.82936,-4.91652 6.99408,-11.29458 8.49633,-17.12317 0.68287,-2.64948 0.87602,-4.07727 0.99507,-7.35576 0.0811,-2.237468 0.26453,-4.214702 0.40728,-4.393849 0.16202,-0.203314 0.14904,-0.394053 -0.0347,-0.50754 -1.02806,-0.635384 0.74011,-3.270137 5.68536,-8.471756 6.08168,-6.396962 8.06886,-9.156487 9.04364,-12.558554 0.5699,-1.989028 0.43683,-4.271361 -0.35426,-6.076071 l -0.54296,-1.238677 -0.1761,2.071979 c -0.1294,1.521644 -0.4292,2.602166 -1.12906,4.068131 -1.14314,2.39454 -2.3106,3.898995 -6.15068,7.926145 -3.91811,4.108991 -5.16059,5.728093 -6.42963,8.378607 -0.95335,1.991227 -1.09586,2.165344 -1.26288,1.543084 -0.1035,-0.385771 -1.00892,-2.279556 -2.01193,-4.208412 -1.003,-1.928854 -2.06173,-4.13827 -2.35275,-4.909813 l -0.52909,-1.402804 0.12999,3.22645 c 0.083,2.060266 0.45247,4.798256 1.02234,7.575141 1.1006,5.36297 1.2443,9.582569 0.44427,13.046069 -0.28512,1.23447 -1.52012,4.76954 -2.74442,7.85571 -1.2243,3.08617 -2.64836,7.06349 -3.16458,8.8385 -0.93578,3.21757 -1.47416,5.89094 -1.18638,5.89094 0.0834,0 0.91376,-0.97846 1.84522,-2.17435 z m -89.854573,-3.01652 c -0.215876,-1.24527 -0.680133,-2.21123 -5.05646,-10.52054 -3.828287,-7.26876 -6.499926,-11.31081 -9.417285,-14.247819 -2.386012,-2.402097 -3.66579,-3.376405 -3.148049,-2.396637 0.148878,0.281719 1.112265,2.959194 2.140871,5.949946 1.947109,5.66129 3.402412,8.87758 5.246153,11.59427 1.281022,1.88751 4.984249,5.83395 8.165791,8.70208 l 2.26346,2.04046 z m 65.757103,-2.06026 3.22645,-0.48538 -0.97485,-0.61392 c -1.29792,-0.81736 -3.60957,-1.27033 -5.26007,-1.03072 -2.20163,0.31963 -5.80518,1.78835 -5.38963,2.19669 0.41512,0.40792 5.51242,0.36746 8.3981,-0.0666 z m -12.34466,-2.25704 c 0,-1.08472 -5.265419,-6.08144 -5.821977,-5.52487 -0.350846,0.35084 1.134411,2.71815 2.296167,3.65978 1.33671,1.08344 3.52581,2.24144 3.52581,1.86509 z m 22.50999,-0.88375 c 1.89749,-1.56407 2.07644,-4.13438 0.51947,-7.46153 -1.31913,-2.81892 -1.53531,-2.42909 -1.30745,2.35767 0.13222,2.77854 0.0963,4.40874 -0.10901,4.94872 -0.16839,0.44289 -0.26402,0.84738 -0.21254,0.89886 0.0515,0.0515 0.55076,-0.28319 1.10947,-0.74372 z m 14.24347,-8.88493 c 1.11694,-0.18254 2.88729,-1.55251 3.56572,-2.75927 0.64299,-1.14378 1.33236,-3.74045 1.0642,-4.00861 -0.0831,-0.0832 -0.62238,0.29882 -1.19819,0.84891 -2.598,2.48184 -5.66579,4.27022 -8.01226,4.67079 -0.59401,0.10138 -1.10047,0.31062 -1.12548,0.46494 -0.11288,0.69605 3.33976,1.16998 5.70601,0.78324 z m -63.834356,-1.63623 c 0.613503,-0.23322 1.230033,-0.53861 1.370064,-0.67865 0.335108,-0.3351 -2.026485,-0.99723 -5.523353,-1.54861 -2.408081,-0.37969 -4.439691,-0.93358 -6.155774,-1.67829 -0.444226,-0.19277 -0.464402,-0.13114 -0.192572,0.58823 0.411067,1.08787 1.577192,2.27534 2.933272,2.98697 1.477195,0.77519 5.891359,0.96787 7.568363,0.33035 z m 61.797156,-1.67509 c 3.5134,-1.78191 5.62645,-6.413545 4.54338,-9.958733 -0.16467,-0.539061 -0.3557,-1.674499 -0.42449,-2.523196 -0.15677,-1.934653 -1.24982,-4.215863 -2.46361,-5.141663 -4.39774,-3.35432 -12.74613,-0.933468 -15.31239,4.44026 -0.78565,1.645158 -0.92668,4.396953 -0.31607,6.167054 l 0.3853,1.116958 0.46234,-1.418261 c 0.53814,-1.650731 1.68091,-3.687734 2.4689,-4.400852 0.53974,-0.488476 0.55437,-0.466684 0.73855,1.100406 0.24879,2.116732 0.97711,3.691561 2.20645,4.770927 2.53412,2.22495 6.79333,1.20189 8.34557,-2.004617 0.81392,-1.68134 0.66894,-3.883331 -0.39373,-5.980429 -0.67132,-1.324773 -0.69165,-1.455391 -0.22659,-1.455391 0.28103,0 1.12126,0.387062 1.86722,0.860141 l 1.35629,0.860137 -0.16412,1.73505 c -0.41687,4.404681 -1.95925,6.931929 -4.91631,8.055519 -2.62169,0.99617 -6.98887,0.59979 -9.51619,-0.86372 -1.61011,-0.93238 -0.84794,0.90912 1.13142,2.73363 1.85506,1.70994 3.55466,2.38448 6.37357,2.52953 2.15978,0.11114 2.52346,0.0523 3.8546,-0.62275 z m -4.92072,-13.099163 c -0.80831,-0.808326 -0.18906,-2.188374 0.98197,-2.188374 0.77994,0 0.88288,0.938743 0.20853,1.901497 -0.49765,0.710491 -0.7146,0.76277 -1.1905,0.286877 z M 79.427138,104.75621 c 1.982621,-0.48332 4.74954,-2.0302 6.510988,-3.64006 0.82744,-0.75624 1.44546,-1.433957 1.373374,-1.506042 -0.07208,-0.07208 -1.244293,0.12401 -2.604909,0.435742 -3.757728,0.86098 -6.075905,0.99967 -8.439947,0.50494 -3.847959,-0.805256 -6.68044,-2.799718 -9.909208,-6.977454 -2.131618,-2.758123 -2.263641,-2.687252 -1.386068,0.74404 1.40876,5.508192 5.14869,9.532494 9.770186,10.513064 1.820506,0.38628 2.864375,0.36974 4.685584,-0.0742 z m 0.90069,-6.087235 c 1.700155,-0.841566 3.064425,-2.481131 3.60134,-4.328051 0.250973,-0.863319 0.387784,-1.74826 0.304022,-1.966539 -0.08376,-0.218278 -0.04274,-0.464581 0.09118,-0.547344 0.304404,-0.188133 2.162463,2.126562 3.731856,4.648998 0.654795,1.052429 1.291496,1.91866 1.414889,1.924955 0.297658,0.01525 -0.03368,-3.067863 -0.556587,-5.178924 -0.97464,-3.934794 -3.972126,-7.900644 -7.146186,-9.454831 -3.331554,-1.631299 -6.814507,-1.617904 -10.196909,0.03922 -2.140473,1.048675 -3.625696,2.325098 -5.79616,4.9813 -2.01136,2.461495 -1.910756,2.474892 2.389919,0.318224 1.52135,-0.762916 2.817092,-1.336116 2.879429,-1.27378 0.06234,0.06234 -0.09249,0.605909 -0.344015,1.207936 -0.32625,0.780823 -0.417115,1.595856 -0.316987,2.843236 0.225182,2.805313 2.044594,5.186469 5.174629,6.772297 1.4982,0.759058 3.253083,0.763953 4.769574,0.01325 z m -1.842416,-9.036941 c -0.916994,-1.83124 -0.704131,-2.266899 0.815867,-1.669828 0.641858,0.252131 1.23666,0.639898 1.321774,0.861705 0.196405,0.511822 -0.770261,2.338714 -1.173904,2.218553 -0.166408,-0.04955 -0.600097,-0.684236 -0.963737,-1.41043 z m -46.360274,4.361579 c -0.306951,-0.623173 -0.618656,-2.152818 -0.764547,-3.751978 -0.220223,-2.413861 -0.360766,-2.88941 -1.326737,-4.488974 -1.433367,-2.373546 -3.398729,-4.257803 -6.560018,-6.289311 -6.619428,-4.253754 -7.831573,-5.112704 -9.246512,-6.552174 -1.875322,-1.907827 -3.18533,-4.561257 -3.172127,-6.425186 0.0052,-0.725999 0.398449,-3.040609 0.874054,-5.14358 0.513636,-2.271248 0.864039,-4.606295 0.863058,-5.751495 -0.0036,-4.059263 -1.13715,-9.266719 -4.5879065,-21.07432 C 5.8903724,26.598577 5.2142908,23.058471 5.0294009,17.891505 4.8956072,14.150625 4.9513733,13.229103 5.4292183,11.298327 5.7346967,10.063859 6.0783477,8.8328983 6.1928697,8.5628587 6.5872326,7.6329926 5.8341731,8.0693891 4.5176941,9.5336304 1.6355451,12.739266 0.57155423,16.373878 0.80889092,22.202957 c 0.18431062,4.526815 0.82760118,7.262138 3.70368238,15.748642 2.5602581,7.554539 3.392191,10.631539 3.8360553,14.18828 0.3819128,3.060091 0.1963573,4.632343 -1.0553467,8.942187 -0.9560819,3.291957 -1.1458277,6.129204 -0.561981,8.403109 1.1659926,4.541261 3.6273001,7.144957 12.2234901,12.930673 6.648605,4.474868 9.02394,6.58014 10.218478,9.05667 0.858587,1.780039 2.387906,3.573198 3.047451,3.573198 0.359504,0 0.345231,-0.157186 -0.09557,-1.052103 z M 39.42161,81.991499 c 3.049802,-0.787895 4.231769,-1.497366 5.119884,-3.073207 0.578236,-1.026002 0.630315,-1.449383 0.580777,-4.721673 -0.05261,-3.470599 -0.03085,-3.618205 0.629528,-4.278552 0.719585,-0.719581 1.666723,-0.897272 1.990491,-0.373428 0.206965,0.334873 0.670556,-0.183588 0.678587,-0.758888 0.007,-0.494712 -2.153987,-1.32851 -3.442988,-1.32851 -3.067353,0 -4.386129,2.406251 -4.40277,8.033294 -0.007,2.143307 -0.438184,3.2306 -1.580329,3.978965 -1.05931,0.694081 -3.194851,2.690502 -3.194851,2.986714 0,0.37419 0.743908,0.278736 3.621671,-0.464715 z M 147.5561,79.544732 c 2.5929,-2.819347 4.40544,-5.038675 4.92637,-6.032056 0.46112,-0.8793 -0.0358,-0.829226 -1.79714,0.181102 -2.04628,1.173743 -4.11923,3.142158 -4.95083,4.701119 -0.76074,1.426146 -1.2712,3.745024 -0.82438,3.745024 0.1425,0 1.33326,-1.167835 2.64598,-2.595189 z m -11.17513,-3.426951 c 1.21957,-0.634619 2.56715,-2.261324 3.05191,-3.684004 0.23158,-0.67965 0.35094,-1.235727 0.26524,-1.235727 -0.0857,0 -0.74084,0.425546 -1.45591,0.945661 -3.12074,2.26992 -4.49256,2.409601 -6.42036,0.653737 l -0.63127,-0.574967 v 0.623962 c 0,2.441378 3.06864,4.37544 5.19039,3.271338 z m 26.3447,-7.585058 c 0.60182,-1.08016 2.88595,-5.49899 5.07587,-9.819627 5.77756,-11.399016 8.4962,-18.695921 9.81333,-26.339322 0.44846,-2.602398 0.59537,-9.432176 0.2029,-9.432176 -0.12448,0 -0.46248,0.91533 -0.75094,2.034065 -0.87842,3.406958 -4.47063,14.117135 -6.29329,18.763529 -0.94602,2.411637 -2.9637,6.845157 -4.48373,9.852272 -3.75865,7.435903 -4.9487,11.253642 -4.74485,15.221819 l 0.0865,1.683366 z m -33.07815,-2.348211 c 0,-2.95828 4.20344,-9.156035 14.23846,-20.993866 1.70737,-2.014113 1.4176,-2.261496 -0.96706,-0.825541 -4.37083,2.63198 -9.19534,6.903553 -11.3807,10.076378 -2.40546,3.492355 -3.71015,6.994576 -3.71278,9.966365 -0.001,1.551366 0.0889,1.850826 0.74081,2.454907 0.40829,0.378403 0.81862,0.688004 0.91182,0.688004 0.0932,0 0.16939,-0.614811 0.16939,-1.366247 z M 51.593249,63.412488 c -0.578517,-4.989815 -1.52569,-8.456293 -3.279336,-12.001726 -0.841682,-1.701656 -1.792239,-3.330941 -2.112341,-3.620631 -0.579533,-0.524471 -0.582007,-0.522052 -0.581777,0.568873 5.6e-4,2.296551 0.587879,7.144691 1.122646,9.265982 0.675923,2.68128 2.400794,6.273387 3.789463,7.891708 0.562736,0.655811 1.11775,1.192384 1.233356,1.192384 0.115612,0 0.03821,-1.483466 -0.172018,-3.29659 z m 59.677541,-3.83778 c 0,-0.27802 -4.28555,-2.757857 -7.01402,-4.058668 -6.194139,-2.953075 -11.703509,-4.305671 -17.535051,-4.304999 -4.760125,5.61e-4 -9.406779,0.923307 -13.186357,2.618632 l -1.402803,0.629223 1.543083,0.218515 c 0.848697,0.120183 5.200835,0.419033 9.671419,0.664106 9.845407,0.539721 10.123239,0.578007 16.981859,2.340092 5.90451,1.516955 10.94187,2.388492 10.94187,1.893099 z m 5.16404,-1.298418 c 4.62538,-1.566198 9.65728,-4.47689 17.43632,-10.086001 1.99763,-1.440406 5.39959,-3.774104 7.55992,-5.186001 3.78699,-2.475023 7.83319,-5.2591 18.45349,-12.697274 2.7426,-1.920855 6.15142,-4.571111 7.57514,-5.88946 3.1751,-2.940122 4.376,-3.833615 5.97146,-4.442928 1.68623,-0.64398 2.69162,-0.227075 3.50518,1.453495 0.32825,0.678104 0.61787,1.232916 0.64356,1.232916 0.0258,0 0.0803,-0.662826 0.12136,-1.472944 0.14311,-2.828507 -1.66557,-4.375144 -4.69951,-4.018565 -2.98204,0.35048 -4.54269,1.347949 -13.19387,8.432754 -4.50981,3.69326 -8.76652,6.842238 -16.69337,12.349238 -1.08016,0.750416 -6.55326,4.373811 -12.16245,8.051985 -5.6092,3.678176 -11.10138,7.425328 -12.20485,8.327002 -2.57984,2.108063 -5.44039,3.957693 -6.43008,4.157691 -1.31418,0.26557 -1.15375,0.646056 0.26984,0.639963 0.74671,-0.0031 2.46508,-0.383615 3.84796,-0.851871 z M 70.870035,55.499342 c 0,-0.127912 -0.915329,-1.080514 -2.034066,-2.116873 C 65.675375,50.454603 60.200158,44.555363 52.821668,36.127954 30.916271,11.108504 24.498933,5.0087938 17.098267,2.1727276 14.671241,1.2426459 11.708099,1.2695781 9.8480676,2.2386243 9.0765257,2.6405839 8.090214,3.3435359 7.6562744,3.8007341 L 6.8672671,4.6320076 8.3576763,4.2320788 C 12.489547,3.1233429 17.798004,5.273373 24.016387,10.574177 c 3.286822,2.801812 5.053514,4.580542 9.915159,9.982657 2.638515,2.931858 5.324604,5.89879 5.96907,6.593177 1.648995,1.776758 4.019857,4.677828 7.121754,8.714446 8.510446,11.074964 13.403431,15.706619 19.646178,18.596879 2.077337,0.96176 4.201487,1.486549 4.201487,1.038006 z"
       id="path177" />
    <path
       style="fill:#000000;stroke-width:0.751976"
       d="m 215.22433,151.55631 c -3.72701,-3.72698 2.02037,-11.7413 15.21301,-21.21354 2.7178,-1.95138 10.4475,-6.93183 17.1771,-11.06769 l 12.23565,-7.51976 6.07895,-8.52365 c 3.34345,-4.688 5.65773,-8.26329 5.14286,-7.94509 -0.51485,0.31818 -3.52519,2.66883 -6.68965,5.22365 -8.89599,7.18212 -16.5007,9.21619 -16.5007,4.41355 0,-2.50567 1.01167,-4.32879 5.18062,-9.33594 3.747,-4.50036 3.54249,-4.37795 -6.00946,3.59703 -8.96249,7.48281 -14.95729,10.03128 -17.21047,7.31639 -1.50301,-1.81104 -0.24004,-4.77641 4.63166,-10.87488 7.86132,-9.84092 1.88506,-7.47469 -13.52718,5.35592 -7.49628,6.24065 -11.41059,8.19355 -11.41915,5.69718 -0.002,-0.77075 4.30713,-7.40943 9.68263,-14.91497 0.91598,-1.27892 0.86799,-1.4405 -0.42776,-1.4405 -0.80268,0 -4.31244,2.58889 -7.79947,5.75306 -10.56316,9.58522 -15.10134,12.2431 -19.16353,11.22357 -3.12179,-0.78352 -2.43528,-4.07848 2.07601,-9.96439 4.26159,-5.5601 3.57264,-5.22247 -5.46865,2.68002 -8.06364,7.04796 -14.61225,9.39208 -16.74004,5.99219 -1.07574,-1.7189 0.9642,-6.76052 4.75505,-11.75183 1.65548,-2.17972 3.00995,-4.12545 3.00995,-4.32386 0,-0.19833 -0.84597,-0.36073 -1.87994,-0.36073 -1.03397,0 -1.87994,-0.33839 -1.87994,-0.75198 0,-0.41359 1.1666,-0.75198 2.59241,-0.75198 2.29844,0 3.42831,-0.8624 9.96368,-7.60506 6.99502,-7.21687 10.04191,-9.46798 11.55185,-8.53478 0.36878,0.22794 -2.36761,3.86802 -6.08085,8.08912 l -6.75138,7.67474 4.32584,0.37598 4.32581,0.37599 -4.88784,0.56671 c -5.42819,0.62936 -5.57863,0.75653 -10.71566,9.05959 -3.29861,5.33162 -3.48308,6.54118 -0.99756,6.54118 1.94975,0 6.60413,-3.2518 13.10141,-9.15335 5.54319,-5.03495 10.02313,-7.54596 12.9392,-7.25246 l 2.36788,0.23833 -5.35193,6.3918 c -4.99573,5.96638 -6.85696,9.2489 -5.82781,10.27804 0.83328,0.83326 6.94938,-3.40666 13.14728,-9.1142 9.00143,-8.28928 12.63564,-10.17129 15.0257,-7.78123 1.44356,1.44356 1.10853,2.46133 -2.58748,7.85988 -3.639,5.3153 -3.4589,5.27798 4.18233,-0.86651 8.85254,-7.11853 15.60342,-9.66453 17.28665,-6.51942 0.89774,1.67747 0.15063,3.24189 -4.6798,9.79804 -3.30566,4.48673 -4.31912,6.87305 -2.91889,6.87305 1.08555,0 7.19963,-4.1865 11.42686,-7.82433 6.45855,-5.55804 12.70766,-9.47111 15.12519,-9.47111 2.77164,0 2.72803,0.57127 -0.3198,4.18851 -4.59988,5.45927 -8.03761,10.30735 -8.03761,11.33514 0,2.81387 4.47139,0.19692 17.13544,-10.02915 5.00613,-4.04236 8.38923,-6.24647 9.58769,-6.24647 1.01857,0 1.85023,0.25379 1.84817,0.56398 -0.002,0.31019 -3.2436,4.90803 -7.20339,10.2174 -3.95976,5.30937 -7.05125,9.80174 -6.86996,9.98302 0.38718,0.38719 11.32459,-7.30961 14.11828,-9.9352 1.05659,-0.99301 2.20881,-1.80549 2.56047,-1.80549 1.91458,0 -7.68556,7.90075 -14.82858,12.20364 -3.33861,2.01116 -5.6342,4.43405 -11.09343,11.70857 -10.94308,14.58192 -21.48313,24.42566 -32.05186,29.93447 -5.38673,2.80776 -9.91556,3.33014 -11.87586,1.36981 z m 11.6019,-2.68561 c 5.49923,-3.12359 15.32623,-13.1975 23.91892,-24.51979 3.84499,-5.06644 6.78125,-9.2117 6.52499,-9.2117 -0.75802,0 -17.62505,10.42161 -22.92415,14.1641 -12.20868,8.62241 -18.96443,17.70503 -15.6411,21.02836 1.45209,1.45212 3.70692,1.0465 8.12134,-1.46097 z m 166.68795,3.36599 c -1.40469,-1.40472 -0.18188,-6.02986 3.58195,-13.54854 4.99222,-9.97247 11.62937,-19.99562 21.72317,-32.80546 10.57094,-13.41541 10.68348,-13.63101 3.89464,-7.46218 -8.52155,7.74326 -15.60697,10.96063 -18.27103,8.29657 -1.39163,-1.3916 -1.09638,-3.08794 1.34528,-7.72963 l 2.24766,-4.27286 -6.19459,5.1249 c -3.40702,2.81871 -7.36631,5.7223 -8.79845,6.45244 -4.87973,2.48784 -9.05898,1.13838 -7.88916,-2.54739 l 0.53674,-1.69114 -2.16658,1.43893 c -3.9963,2.65416 -7.35672,4.12712 -9.41561,4.12712 -3.68407,0 -5.47532,-3.36575 -3.62814,-6.81722 1.1067,-2.06789 0.19387,-1.80383 -2.77486,0.80282 -3.06249,2.68891 -9.39492,6.0144 -11.45264,6.0144 -4.3294,0 -4.92342,-2.4364 -2.00037,-8.20476 2.1785,-4.29904 7.98956,-11.77909 19.72975,-25.39624 10.20622,-11.837954 15.504,-16.781372 17.9843,-16.781372 0.98923,0 1.79861,0.183764 1.79861,0.408534 0,0.224653 -3.29929,4.043585 -7.33176,8.486418 -14.7524,16.2537 -28.0111,34.09388 -28.0111,37.6902 0,1.48189 3.10827,0.79254 6.2563,-1.38753 1.72886,-1.19727 5.16605,-3.95446 7.63819,-6.12708 8.98557,-7.89699 21.44837,-11.74177 21.44837,-6.61687 0,1.35673 0.18071,1.32393 2.51489,-0.45642 2.44286,-1.86326 5.75684,-2.58967 5.75684,-1.26186 0,0.36099 -1.81931,2.87588 -4.0429,5.58863 -5.68057,6.93018 -7.61958,10.21641 -6.61873,11.21727 0.57698,0.57698 1.30464,0.4835 2.53929,-0.32617 2.80343,-1.83851 16.9938,-13.27347 17.51165,-14.11139 0.28489,-0.46093 -0.46373,-0.76877 -1.86955,-0.76877 -1.37165,0 -2.15182,-0.31207 -1.87994,-0.75198 0.2556,-0.41359 1.65407,-0.75198 3.10766,-0.75198 2.26493,0 3.19954,-0.6184 6.53476,-4.32386 8.16613,-9.07266 13.02335,-12.93967 14.84151,-11.81598 0.36878,0.22794 -2.36783,3.86802 -6.08132,8.08912 l -6.75185,7.67474 3.95032,0.38169 3.95029,0.38168 -4.60994,0.58546 c -4.54795,0.57756 -4.65026,0.64324 -7.60626,4.88213 -3.26258,4.67858 -5.45523,8.6574 -5.45523,9.89917 0,0.43413 0.82006,0.78932 1.82234,0.78932 1.953,0 6.98617,-3.47693 12.4652,-8.61097 1.86114,-1.74395 4.62235,-4.1576 6.13603,-5.36365 1.51368,-1.20608 5.17855,-5.23836 8.1442,-8.96064 14.09656,-17.693144 30.25384,-33.845654 37.23728,-37.226278 5.21598,-2.525017 8.70673,-1.102749 7.64787,3.116046 -1.17639,4.687159 -7.80558,11.097353 -31.6542,30.608582 -10.75161,8.79619 -14.75523,12.61555 -19.82968,18.91715 -4.51418,5.60584 -6.01928,7.96347 -5.18964,8.1293 1.97629,0.395 9.13787,-3.44778 15.31497,-8.21775 7.11149,-5.49149 13.29541,-8.75415 17.66688,-9.32111 2.81419,-0.36502 3.06197,-0.29137 1.83663,0.54595 -7.74216,5.29039 -13.58557,11.87187 -14.47093,16.29865 -0.4091,2.04549 -0.26192,2.34065 1.16716,2.34065 0.89941,0 2.57448,-0.48569 3.7224,-1.07928 2.48873,-1.28698 7.61389,-6.78989 7.61389,-8.17508 0,-0.53806 1.18436,-2.12621 2.63192,-3.52923 1.48741,-1.44166 2.63191,-3.29405 2.63191,-4.25978 0,-2.22244 2.09223,-1.54211 2.6996,0.87784 0.4845,1.93041 -0.93509,5.07114 -3.86711,8.55562 -1.61529,1.91966 -1.74386,2.34607 -0.70735,2.34607 1.67627,0 5.15912,-2.42843 9.77061,-6.81261 7.00665,-6.66128 11.5178,-8.81591 13.76115,-6.57255 1.42975,1.42974 1.07129,3.15066 -1.35355,6.49806 -3.45423,4.76839 -2.71731,4.66036 2.44392,-0.35827 5.66736,-5.51081 7.87039,-7.04216 10.13099,-7.04216 2.27976,0 2.17688,0.4318 -0.91929,3.8589 -2.93186,3.24522 -3.41524,6.19661 -1.20833,7.37773 1.57241,0.84151 2.73132,0.12642 9.48007,-5.84999 4.73519,-4.19326 7.89997,-5.73737 10.4483,-5.09777 2.81988,0.70775 2.49292,2.59651 -1.4453,8.34886 -3.74322,5.46754 -3.12166,5.3531 4.15657,-0.76523 8.30642,-6.98266 15.51251,-9.69999 17.22715,-6.49618 0.89537,1.67306 -0.1706,3.94153 -4.22088,8.98247 -3.1482,3.91815 -2.92834,3.80638 4.64077,-2.35939 8.78324,-7.15482 15.9099,-9.83246 17.62753,-6.62308 0.9105,1.70133 -0.0801,3.744 -4.77363,9.84362 -3.17148,4.12158 -4.29111,6.82747 -2.82506,6.82747 0.95207,0 6.96844,-4.00326 10.55805,-7.02524 1.79687,-1.51274 3.44564,-2.75044 3.66395,-2.75044 0.7732,0 -1.7224,2.54903 -5.92507,6.05195 -7.44661,6.20676 -14.91749,7.77167 -14.91749,3.12476 0,-2.30292 0.89462,-3.77569 6.16893,-10.15571 1.98371,-2.3996 3.60676,-4.51453 3.60676,-4.69985 0,-0.18541 -0.63822,-0.33695 -1.41828,-0.33695 -1.98141,0 -8.97285,4.84201 -17.30766,11.98667 -6.69719,5.74092 -10.60112,7.62285 -10.60112,5.11043 0,-1.05199 5.00125,-8.51568 8.89851,-13.27984 2.01001,-2.45711 2.28072,-3.15101 1.36624,-3.50195 -1.71279,-0.65725 -6.778,2.62848 -16.30969,10.5798 -8.05413,6.71876 -11.99698,8.75899 -12.00569,6.21233 -0.002,-0.77075 4.3071,-7.40943 9.68262,-14.91497 0.91438,-1.27671 0.86832,-1.4405 -0.40503,-1.4405 -0.79019,0 -3.72019,2.027 -6.51112,4.50445 -5.70414,5.06345 -8.11587,6.03165 -10.98289,4.40902 -1.52964,-0.86571 -1.93204,-1.67298 -1.93204,-3.87598 0,-1.53042 -0.1182,-2.78234 -0.26246,-2.78206 -0.14429,2.9e-4 -3.90139,3.38439 -8.34898,7.52025 -7.60731,7.07417 -11.31592,9.21286 -11.31592,6.5257 0,-0.91638 5.59682,-9.48366 9.12885,-13.97392 0.8287,-1.05352 1.16281,-2.03015 0.74248,-2.17025 -1.23792,-0.41265 -3.73997,1.22852 -8.38895,5.50244 -4.96445,4.56395 -8.0558,6.37196 -10.8949,6.37196 -1.0821,0 -3.06285,0.83549 -4.40169,1.85668 -5.26778,4.01794 -10.72487,5.17154 -13.91007,2.94053 -1.45376,-1.01823 -1.68774,-1.72912 -1.42319,-4.32386 0.17413,-1.70788 0.60022,-3.75135 0.9469,-4.54104 0.42764,-0.9741 -0.69543,-0.43481 -3.49276,1.67718 -2.2677,1.71213 -6.62526,4.1448 -9.68347,5.40591 -3.05824,1.26109 -5.82281,2.70589 -6.1435,3.21063 -0.3207,0.50476 -1.31183,3.11727 -2.20252,5.80558 -2.41323,7.28369 -7.44801,17.74259 -11.82794,24.57053 -6.20803,9.67774 -13.64279,15.78952 -16.15341,13.27893 z m 9.20358,-5.95617 c 5.19829,-5.68778 11.32055,-16.19756 15.46732,-26.5521 1.88774,-4.71371 3.29887,-8.70376 3.13581,-8.8668 -0.76704,-0.76706 -18.70474,25.87339 -22.7366,33.76763 -3.60949,7.06721 -1.56343,7.88459 4.13347,1.65127 z m -23.1766,-41.70154 c 3.86429,-1.97142 8.49347,-6.16235 11.27942,-10.21157 2.77423,-4.03221 2.82715,-5.54735 0.19387,-5.54735 -4.48238,0 -17.50933,13.07044 -16.26328,16.31759 0.50894,1.3263 1.26896,1.23766 4.79004,-0.55867 z m 76.26169,-31.88551 c 14.14276,-12.401585 21.68296,-20.026643 23.56462,-23.829807 1.78498,-3.607768 1.57468,-4.410173 -1.15576,-4.410173 -3.25545,0 -19.369,17.251358 -33.7142,36.09484 -4.47008,5.87175 -3.88448,5.46489 11.30534,-7.85486 z m -170.32251,34.74922 c -2.0524,-0.74175 -2.63191,-1.36514 -2.63191,-2.83114 0,-1.39675 0.67647,-2.21788 2.63191,-3.19472 3.50028,-1.74861 9.32495,-1.67961 19.20718,0.22747 7.54871,1.45674 8.11382,1.47256 9.93701,0.27797 3.80614,-2.4939 8.74512,-7.58323 17.60462,-18.14054 8.2629,-9.84642 16.59638,-18.272919 18.07122,-18.272919 1.63691,0 0.2686,-1.47399 -2.33559,-2.51597 -5.73793,-2.295876 -12.55971,-3.016927 -19.43838,-2.054656 -8.13681,1.13828 -13.34713,3.112192 -18.77588,7.113225 -5.20693,3.83752 -8.39872,9.16529 -9.00394,15.02943 -0.37984,3.68029 -0.22865,4.20925 1.8759,6.56301 2.11678,2.36745 2.61892,2.55784 6.673,2.53016 3.39033,-0.0235 5.29669,-0.52871 8.41109,-2.23059 7.22334,-3.94719 12.3325,-11.54685 11.09025,-16.49631 -1.04085,-4.1471 -7.46596,-4.40502 -11.67964,-0.46885 -1.27036,1.18671 -2.30978,1.91601 -2.30978,1.62067 0,-1.26106 4.54825,-4.74436 6.87181,-5.26282 3.07175,-0.68538 6.70447,0.19833 7.97884,1.94125 1.30432,1.78378 1.17649,6.66711 -0.25339,9.68039 -3.03618,6.39828 -12.8716,12.37416 -20.36605,12.37416 -8.35337,0 -13.04309,-3.47577 -13.01409,-9.64538 0.0461,-9.78924 9.46167,-18.319655 24.79868,-22.467153 7.32582,-1.981057 21.42492,-1.790549 27.5671,0.372486 l 4.63182,1.631177 3.26851,-1.826808 c 6.76762,-3.782485 16.33094,-5.158671 21.3309,-3.069565 3.75856,1.570431 3.20739,1.909548 -0.9038,0.556109 -2.94803,-0.970542 -4.34074,-1.013874 -8.67837,-0.270053 -4.94361,0.847735 -11.99559,3.764908 -12.9897,5.373407 -0.25896,0.419015 0.47847,2.00646 1.63874,3.52766 1.74536,2.28831 2.10958,3.51119 2.10958,7.0834 0,6.11542 -2.7496,9.95409 -9.59044,13.38907 -4.05562,2.03647 -6.1451,2.59655 -10.37353,2.78069 -5.10742,0.22254 -5.43157,0.35338 -9.15063,3.69713 -2.12059,1.90661 -6.24241,4.88451 -9.15958,6.61758 l -5.30394,3.15101 3.74164,0.86924 c 6.15372,1.42957 10.25549,1.20346 14.17622,-0.78147 4.19159,-2.12205 4.27992,-0.81575 0.1041,1.53946 -4.23259,2.38724 -8.41759,2.74917 -16.33162,1.41242 -5.29703,-0.89471 -7.62825,-0.98659 -9.62256,-0.37923 -4.22244,1.28595 -18.75634,1.65223 -21.8073,0.5496 z m 17.48344,-0.98833 c 2.37812,-0.2459 4.32386,-0.70263 4.32386,-1.01496 0,-0.74356 -8.74802,-2.35547 -15.4155,-2.84047 -8.71317,-0.63382 -11.21034,3.17952 -2.81651,4.30093 3.55123,0.47442 5.66675,0.40668 13.90815,-0.4455 z m 39.93355,-17.91622 c 2.91163,-1.21656 7.37667,-4.99545 9.61239,-8.13523 2.1844,-3.06768 3.00184,-7.16478 2.10267,-10.53849 -1.49432,-5.606615 -2.64569,-4.75425 -12.22927,9.05343 -2.96584,4.27308 -5.85669,8.41835 -6.42413,9.21171 -0.96342,1.34704 -0.84989,1.44248 1.71611,1.44248 1.51128,0 3.86127,-0.46527 5.22223,-1.0339 z M 210.78593,77.97666 c -0.75421,-1.96543 1.31953,-4.56322 3.83785,-4.80773 2.92749,-0.28427 3.23448,1.12634 0.73482,3.37639 -2.26619,2.03986 -4.11685,2.61916 -4.57267,1.43134 z"
       id="path19419" />
  </g>
</svg>
