<?xml version="1.0" encoding="UTF-8" standalone="no"?>
<svg xmlns="http://www.w3.org/2000/svg" height="40" viewBox="0 -960 960 960" width="40">
  <path
     d="M200-120v-680h360l16 80h224v400H520l-16-80H280v280h-80Zm300-440Zm86 160h134v-240H510l-16-80H280v240h290l16 80Z"
     id="path2" />
  <path
     style="fill:#ffffff;stroke:#abb8b5;"
     d="m 14.461046,13 -0.19911,-1 H 10.630968 7 V 9 6 h 2.6647134 c 2.5128936,0 2.6655516,0.00289 2.6794266,0.050725 0.0081,0.027899 0.09453,0.4550725 0.192092,0.9492754 0.09756,0.4942029 0.184,0.9213768 0.192092,0.9492754 C 12.742197,7.9971021 12.892786,8 15.364272,8 h 2.621235 v 3 3 h -1.662675 -1.662675 z"
     id="path252"
     transform="matrix(40,0,0,40,0,-960)" />
  <path
     style="fill:blue;"
     d="M 5,12.492754 V 4 h 4.4908003 c 4.2520237,0 4.4915827,0.0027 4.5055137,0.050725 0.0081,0.027899 0.09453,0.4550725 0.192092,0.9492754 0.09756,0.4942029 0.184,0.9213768 0.192092,0.9492754 C 14.394379,5.9971321 14.553242,6 17.190359,6 h 2.795148 v 5 5 h -3.488762 -3.488762 l -0.199111,-1 -0.19911,-1 H 9.8048809 7 v 3.492754 3.492753 H 6 5 Z M 18.014493,11 V 7.9710145 l -2.528986,-3.188e-4 c -1.390942,-1.74e-4 -2.575227,-0.00797 -2.631745,-0.017322 L 12.751002,7.9363707 12.564201,6.9948794 C 12.461461,6.477059 12.367965,6.0381148 12.356433,6.0194476 12.340719,5.9940117 11.66338,5.9834069 9.65324,5.977125 L 6.9710145,5.968745 v 3.0301213 3.0301217 h 3.6336895 3.63369 l 0.199111,1 0.19911,1 h 1.688939 1.688939 z"
     id="path409"
     transform="matrix(40,0,0,40,0,-960)" />
</svg>
