<svg xmlns="http://www.w3.org/2000/svg" height="40" viewBox="0 -960 960 960" width="40">
	<path style="fill:#fff;" d="M 11.64978,19.009391 C 10.812919,18.231066 9.7604281,17.145874 9.096531,16.376812 7.3725648,14.37976 6.378312,12.605999 6.0826463,11 6.020273,10.6612 6.0012158,9.9891191 6.0411404,9.5362319 6.1966026,7.7727359 6.9380507,6.3541712 8.2608696,5.2893669 9.1116707,4.6045137 10.079043,4.2011082 11.217391,4.0564623 c 0.388225,-0.04933 1.301323,-0.041087 1.68116,0.015177 0.676439,0.1001993 1.176979,0.2505458 1.73913,0.5223813 0.608884,0.2944334 1.048752,0.607001 1.561359,1.1094913 1.055529,1.0346965 1.621898,2.2681946 1.75982,3.8327198 C 17.99878,9.9891189 17.97973,10.6612 17.91735,11 c -0.316267,1.717901 -1.369744,3.525111 -3.376636,5.792523 -0.377694,0.426723 -2.062249,2.123911 -2.369531,2.3873 l -0.175974,0.150838 z" transform="matrix(40,0,0,40,0,-960)" />
	<path style="fill:rgba(255, 159, 64, 1);" d="m 366.06063,-419.71015 q -23.97893,0 -40.76417,-16.08696 -16.78525,-16.08695 -16.78525,-39.06832 h -38.36627 v -165.46583 q 0,-15.16772 11.2701,-25.96895 11.27009,-10.80124 27.09617,-10.80124 h 268.5639 l 115.09881,110.31055 v 91.92547 h -38.36627 q 0,22.98137 -16.78524,39.06832 -16.78525,16.08696 -40.76416,16.08696 -23.97893,0 -40.76416,-16.08696 -16.78525,-16.08695 -16.78525,-39.06832 H 423.61002 q 0,22.98137 -16.78525,39.06832 -16.78524,16.08696 -40.76414,16.08696 z m 172.64821,-165.46584 h 76.73254 l -57.5494,-55.15527 h -19.18314 z m -115.09882,0 h 76.73255 v -55.15527 h -76.73255 z m -115.09881,0 h 76.73254 v -55.15527 h -76.73254 z m 57.54942,133.29193 q 10.07113,0 17.02501,-6.6646 6.95389,-6.6646 6.95389,-16.31677 0,-9.65218 -6.95389,-16.31678 -6.95388,-6.66459 -17.02501,-6.66459 -10.07116,0 -17.02504,6.66459 -6.95389,6.6646 -6.95389,16.31678 0,9.65217 6.95389,16.31677 6.95388,6.6646 17.02504,6.6646 z m 230.19762,0 q 10.07114,0 17.02502,-6.6646 6.95389,-6.6646 6.95389,-16.31677 0,-9.65218 -6.95389,-16.31678 -6.95388,-6.66459 -17.02502,-6.66459 -10.07115,0 -17.02504,6.66459 -6.95389,6.6646 -6.95389,16.31678 0,9.65217 6.95389,16.31677 6.95389,6.6646 17.02504,6.6646 z m -287.74704,-59.75155 h 15.34651 q 8.15283,-8.27329 18.70356,-13.3292 10.55072,-5.0559 23.49935,-5.0559 12.9486,0 23.49932,5.0559 10.55073,5.05591 18.70356,13.3292 h 145.79183 q 8.15284,-8.27329 18.70356,-13.3292 10.55073,-5.0559 23.49935,-5.0559 12.9486,0 23.49933,5.0559 10.55073,5.05591 18.70356,13.3292 h 15.34651 V -548.4058 H 308.51121 Z M 653.80765,-548.4058 H 308.51121 Z" />
	<path style="fill:rgba(255, 159, 64, 1);" d="m 480,-880 c -84.66619,0 -159.18271,29.65135 -223.51562,88.98438 C 192.15141,-731.68265 160,-652.03065 160,-552.03125 c 0,66.66625 26.53155,139.16715 79.53125,217.5 C 292.53095,-256.1984 372.66733,-171.33279 480,-80 587.33267,-171.33279 667.46905,-256.1984 720.46875,-334.53125 773.46845,-412.8641 800,-485.365 800,-552.03125 c 0,-99.9994 -32.15141,-179.6514 -96.48438,-238.98437 C 639.18271,-850.34865 564.66619,-880 480,-880 Z m 0,80 c 67.33291,0 124.13572,23.19822 170.46875,69.53125 C 696.80178,-684.13572 720,-624.6975 720,-552.03125 c 0,47.33303 -19.65123,101.50036 -58.98438,162.5 C 621.68253,-328.53161 561.33285,-260.68187 480,-186.01562 398.66715,-260.68187 338.31747,-328.53161 298.98438,-389.53125 259.65123,-450.53089 240,-504.69822 240,-552.03125 c 0,-72.66625 23.19822,-132.10447 69.53125,-178.4375 C 355.86428,-776.80178 412.66709,-800 480,-800 Z" />
</svg>
