<svg xmlns="http://www.w3.org/2000/svg" height="40" viewBox="0 -960 960 960" width="40">
	<path style="fill:#fff;" d="M 15.53304,25.345854 C 14.417226,24.308088 13.013904,22.861165 12.128708,21.835749 9.8300865,19.173013 8.504416,16.807999 8.110195,14.666667 8.0270306,14.214934 8.001621,13.318826 8.0548538,12.714976 8.2621368,10.363648 9.2507343,8.4722283 11.014493,7.0524892 c 1.134401,-0.9131376 2.42423,-1.4510116 3.942029,-1.6438728 0.517632,-0.065774 1.735097,-0.054783 2.241546,0.020236 0.901919,0.1335991 1.569305,0.3340611 2.31884,0.6965085 0.811845,0.3925778 1.398336,0.8093347 2.081812,1.4793217 1.407372,1.3795953 2.16253,3.0242594 2.346426,5.1102934 0.05323,0.60385 0.02782,1.499958 -0.05534,1.951691 -0.421689,2.290534 -1.826325,4.700147 -4.502181,7.723364 -0.503592,0.568964 -2.749665,2.831881 -3.159374,3.183067 l -0.234633,0.201117 z"  transform="matrix(30,0,0,30,0,-960)"/>
	<path style="fill:rgba(255, 99, 132, 1);" d="m 480,-880 c -84.66619,0 -159.18271,29.65135 -223.51562,88.98438 C 192.15141,-731.68265 160,-652.03065 160,-552.03125 c 0,66.66625 26.53155,139.16715 79.53125,217.5 C 292.53095,-256.1984 372.66733,-171.33279 480,-80 587.33267,-171.33279 667.46905,-256.1984 720.46875,-334.53125 773.46845,-412.8641 800,-485.365 800,-552.03125 c 0,-99.9994 -32.15141,-179.6514 -96.48438,-238.98437 C 639.18271,-850.34865 564.66619,-880 480,-880 Z m 0,80 c 67.33291,0 124.13572,23.19822 170.46875,69.53125 C 696.80178,-684.13572 720,-624.6975 720,-552.03125 c 0,47.33303 -19.65123,101.50036 -58.98438,162.5 C 621.68253,-328.53161 561.33285,-260.68187 480,-186.01562 398.66715,-260.68187 338.31747,-328.53161 298.98438,-389.53125 259.65123,-450.53089 240,-504.69822 240,-552.03125 c 0,-72.66625 23.19822,-132.10447 69.53125,-178.4375 C 355.86428,-776.80178 412.66709,-800 480,-800 Z"/>
	<path style="fill:rgba(255, 99, 132, 1);" d="m 303.18841,-408.69566 V -610.15797 L 426.14493,-660 v 33.50723 L 513.97101,-660 v 50.26087 h 140.52174 v 201.04347 z m 35.13043,-33.50724 H 619.36232 V -576.23189 H 478.84057 v -34.34493 l -87.82608,33.50725 v -32.66956 l -52.69565,22.19855 z m 122.95652,-33.50725 h 35.13043 v -67.01449 h -35.13043 z m -70.26087,0 h 35.13044 v -67.01449 h -35.13044 z m 140.52174,0 h 35.13043 v -67.01449 h -35.13043 z m 122.95652,-134.02898 h -87.82609 l 17.56522,-134.02899 h 52.69565 z M 338.31884,-442.2029 h 281.04348 z" />
</svg>
